<svg width="1332" height="1388" viewBox="0 0 1332 1388" fill="none" xmlns="http://www.w3.org/2000/svg">
<path d="M764.416 1340.22C699.034 1371.76 622.148 1368.99 559.095 1333.01C97.1358 1069.46 -34.6871 812.816 7.37486 297.22C14.278 212.602 69.2811 139.15 148.582 108.831C536.865 -39.6194 796.341 -33.5205 1174.8 110.752C1252.14 140.235 1306.81 210.452 1316.46 292.657C1382.34 853.764 1246.2 1107.8 764.416 1340.22Z" fill="#FAF5F0"/>
<path d="M837.895 503.691L797.262 463L614.561 645.966L655.194 686.658L837.895 503.691ZM960.08 463L655.194 768.329L534.738 647.987L494.105 688.678L655.194 850L1001 503.691L960.08 463ZM331 688.678L492.088 850L532.72 809.309L371.92 647.987L331 688.678Z" fill="#B57E40"/>
</svg>
