<svg width="1332" height="1388" viewBox="0 0 1332 1388" fill="none" xmlns="http://www.w3.org/2000/svg">
<path d="M764.416 1340.22C699.034 1371.76 622.148 1368.99 559.095 1333.01C97.1358 1069.46 -34.6871 812.816 7.37486 297.22C14.278 212.602 69.2811 139.15 148.582 108.831C536.865 -39.6194 796.341 -33.5205 1174.8 110.752C1252.14 140.235 1306.81 210.452 1316.46 292.657C1382.34 853.764 1246.2 1107.8 764.416 1340.22Z" fill="#FAF5F0"/>
<path d="M977.958 885.561L806.873 714.477L733.452 787.897L904.537 958.982C924.97 979.415 957.871 979.415 977.958 958.982C998.044 938.549 998.044 905.648 977.958 885.561Z" fill="#B57E40"/>
<path d="M862.297 608.848C929.138 608.848 983.511 554.475 983.511 487.634C983.511 467.547 977.97 448.845 969.312 432.222L875.804 525.73L824.201 474.127L917.709 380.619C901.086 371.961 882.384 366.42 862.297 366.42C795.456 366.42 741.083 420.793 741.083 487.634C741.083 501.833 743.854 515.34 748.356 527.808L684.286 591.878L622.64 530.232C636.147 516.725 636.147 494.907 622.64 481.4L598.051 456.811L671.472 383.39C630.952 342.87 565.15 342.87 524.63 383.39L426.967 481.4C413.46 494.907 413.46 516.725 426.967 530.232L451.556 554.821H363.589C357.009 554.821 350.775 557.245 346.273 562.094C336.576 571.791 336.576 587.029 346.273 596.726L434.239 684.693C443.936 694.39 459.175 694.39 468.872 684.693C473.374 680.191 476.145 673.957 476.145 667.377V579.41L500.387 603.653C513.894 617.159 535.713 617.159 549.219 603.653L610.865 665.299L390.949 885.215C370.516 905.648 370.516 938.549 390.949 958.636C411.382 979.069 444.283 979.069 464.37 958.636L821.777 601.575C834.591 606.077 848.098 608.848 862.297 608.848Z" fill="#B57E40"/>
</svg>
