<svg width="556" height="553" viewBox="0 0 556 553" fill="none" xmlns="http://www.w3.org/2000/svg">
<path d="M0 265.409C1 258.039 2.17 250.679 3 243.289C6.72396 209.766 16.8615 177.272 32.86 147.579C61.0333 94.7986 101.95 55.0753 155.61 28.4086C188.37 12.1286 223.17 3.40859 259.61 0.60859C278.34 -0.80141 296.84 0.408591 315.4 2.49859C320.28 3.03859 322.62 4.57859 322.09 9.88859C321.64 14.4586 322 19.1086 322 23.7686C250.1 12.6886 192.82 34.7686 152.58 95.5986C126 135.849 125.43 187.309 133.83 213.529C139.99 211.099 146.2 208.809 152.24 206.129C153.44 205.599 154.49 203.669 154.74 202.239C158.98 178.619 172.25 159.989 187.83 142.799C212.252 115.703 242.6 94.6115 276.51 81.1686C297.28 72.8786 318.83 71.2386 340.8 73.4286C363.14 75.6619 385.473 78.0986 407.8 80.7386C416.53 81.7386 425.22 83.3186 433.8 85.1286C437.75 85.9586 439.09 84.6286 440.15 81.1286C446.818 58.6193 459.839 38.5119 477.65 23.2186C493 9.94859 511.48 4.33859 531.28 2.57859C537.88 1.98859 544.57 2.38859 551.22 2.30859C553.96 2.30859 555.77 3.11859 555.52 6.30859C555.27 9.49859 556.58 12.8286 551.65 14.1386C542.83 16.4986 533.93 18.9486 525.55 22.4886C496.16 34.9086 485.72 55.4886 488.21 89.6586C488.86 98.4386 489.45 107.259 489.49 116.059C489.63 151.389 489.49 186.719 489.65 222.059C489.65 226.749 488.53 228.359 483.65 228.279C466.15 227.989 448.65 228.079 431.15 228.279C427.52 228.279 425.63 227.279 423.95 223.829C410.95 197.329 395.31 172.629 372.68 153.099C356.48 139.099 338.28 129.859 316.22 129.979C291.67 130.119 273.7 148.219 272.8 173.489C272.21 189.909 278.98 203.149 289.57 214.959C302.62 229.509 318.27 240.789 335 250.629C366.88 269.359 398.95 287.769 430.75 306.629C451.95 319.189 471.12 334.279 486.75 353.629C512.09 385.069 513.7 419.939 490.34 453.079C467.49 485.489 436.87 508.789 402.24 527.589C376.91 541.339 349.24 545.749 321.59 550.899C320.84 550.858 320.1 550.714 319.39 550.469C319.39 542.839 319.21 535.079 319.59 527.349C319.65 526.229 322.28 524.819 323.96 524.279C347.96 516.479 367.16 502.279 381.44 481.559C421.43 423.309 394.73 341.579 328 318.179C261 294.679 190.26 339.459 183.24 409.799C180.939 433.114 186.253 456.547 198.385 476.59C210.517 496.633 228.816 512.206 250.54 520.979C253.6 522.209 254.92 523.689 254.81 527.149C254.54 535.459 254.72 543.779 254.72 552.929C249.98 552.579 245.55 552.599 241.25 551.929C133.13 533.929 58.31 474.269 17.56 372.499C7.56 347.639 3.1 321.319 1.21 294.589C0.958096 292.83 0.553227 291.097 0 289.409V265.409Z" fill="#FAF5F0"/>
</svg>
